<svg width="24" height="18" xmlns="http://www.w3.org/2000/svg" xmlns:xlink="http://www.w3.org/1999/xlink"><defs><linearGradient x1="-8.32%" y1="109.66%" x2="100%" y2="0%" id="c"><stop stop-color="#753BBD" offset="0%"/><stop stop-color="#00A9CE" offset="67.21%"/><stop stop-color="#00A9CE" offset="100%"/></linearGradient><path d="M23.4 3.2c.33 0 .6.27.6.6v13.5a.6.6 0 01-.6.6h-6.05v1.7h1.77a.6.6 0 010 1.2H4.88a.6.6 0 010-1.2h1.77v-1.7H.6a.6.6 0 01-.6-.6V3.8c0-.33.27-.6.6-.6zm-7.25 14.7h-8.3v1.7h8.3v-1.7zM22.8 4.4H1.2v12.3h21.6V4.4zM12 7.2c.4 0 .74.3.74.7v3.3c0 .56.49 1.02 1.09 1.02.6 0 1.09-.46 1.09-1.02v-.88c0-.38.33-.69.74-.69.4 0 .74.31.74.7v.87c0 1.33-1.15 2.4-2.57 2.4-.72 0-1.36-.27-1.83-.71-.47.44-1.11.71-1.83.71-1.42 0-2.57-1.07-2.57-2.4 0-1.33 1.15-2.4 2.57-2.4.39 0 .76.08 1.09.23V7.89c0-.38.33-.69.74-.69zm-1.83 2.98c-.6 0-1.09.46-1.09 1.02s.49 1.02 1.09 1.02c.6 0 1.09-.46 1.09-1.02s-.49-1.02-1.1-1.02z" id="a"/></defs><g transform="translate(0 -3)" fill="none" fill-rule="evenodd"><mask id="b" fill="#fff"><use xlink:href="#a"/></mask><use fill="#221E1F" xlink:href="#a"/><g mask="url(#b)" fill="url(#c)"><path d="M0 0h24v24H0z"/></g></g></svg>