<?xml version="1.0" encoding="UTF-8"?>
<svg width="60px" height="21px" viewBox="0 0 60 21" version="1.1" xmlns="http://www.w3.org/2000/svg" xmlns:xlink="http://www.w3.org/1999/xlink">
    <!-- Generator: Sketch 54.1 (76490) - https://sketchapp.com -->
    <title>logo-bein</title>
    <desc>Created with Sketch.</desc>
    <g id="Page-1" stroke="none" stroke-width="1" fill="none" fill-rule="evenodd">
        <g id="logo-bein" fill="#5C2D91" fill-rule="nonzero">
            <path d="M59.4289939,16.2344951 L59.4289939,6.5450016 C59.3802612,5.94778632 58.7708286,5.28962097 57.9420303,5.28962097 C57.1254493,5.28962097 56.4916504,5.95993538 56.4551349,6.56936796 L56.4551349,16.2467125 C56.4551349,16.5148109 56.2722847,17.3558266 55.4922191,17.7336079 C53.8468399,18.5136734 53.0058925,17.1486099 52.9693088,17.0876598 L46.9484234,7.58094828 C46.1562088,6.2037357 43.9136143,4.55835646 40.9640533,5.65525322 C38.0755108,6.84968376 38.0023433,9.87234384 38.0023433,9.90885924 L38.0023433,19.7934204 C38.0511444,20.3662693 38.6361424,21 39.5136734,21 C40.3181053,21 40.9884197,20.3662693 40.9884197,19.6227875 L40.9884197,10.1648087 C40.9884197,10.0917095 40.8909542,8.4584793 42.8410156,8.28784638 C43.9744961,8.22696456 44.5473449,9.4091778 44.5595623,9.43354416 C44.7911453,9.79917642 50.0563999,18.1358238 50.6170315,18.9889885 C51.0557629,19.6593712 52.45741,21 54.5172226,21 C55.2241207,20.987851 55.9188015,20.8538017 56.5648178,20.5734176 C59.5996269,19.3302544 59.4412112,16.2588616 59.4289939,16.2344951 M35.1138008,20.987851 C35.9547481,20.987851 36.576398,20.3174683 36.6251308,19.720253 L36.6251308,6.58151706 C36.576398,5.98430177 35.9547481,5.32620467 35.1260181,5.31398735 L35.1138008,5.31398735 C34.2728534,5.31398735 33.6634208,5.9721527 33.6146881,6.59373438 L33.6146881,19.720253 C33.6634208,20.3419029 34.2850025,20.987851 35.1138008,20.987851 M30.6651272,12.3465214 L23.3157619,12.3465214 C22.8891796,12.3465214 22.5479137,12.6877873 22.5479137,13.1265187 C22.5479137,13.553101 22.8891796,13.8943669 23.3157619,13.8943669 L31.4817764,13.8943669 C31.8839924,13.9187332 32.2252582,13.6262684 32.2617737,13.2240524 L32.2617737,13.138736 C32.2617737,8.7997452 28.7516495,5.28962097 24.424876,5.28962097 C20.0981026,5.28962097 16.5879101,8.81196252 16.5879101,13.138736 C16.5879101,17.4655094 20.0981026,20.987851 24.424876,20.987851 C27.1427857,20.987851 29.6657642,19.5740547 31.0917095,17.2582928 C31.3232926,16.9048096 31.225827,16.4294945 30.8723438,16.1979115 C30.5189289,15.9663284 30.0557629,16.0516449 29.8119625,16.4051281 C29.8119625,16.4051281 29.8119625,16.4173454 29.7998134,16.4173454 C27.9838012,19.3912045 24.1079765,20.3419029 21.1341175,18.5258225 C18.1601902,16.7098103 17.221709,12.8218364 19.0377212,9.8357601 C20.8537334,6.84968376 24.7295582,5.91120262 27.7034855,7.72721484 C29.3244983,8.73886338 30.4213951,10.4329754 30.6651272,12.3465214 M7.80031398,19.4155708 C4.31455613,19.4034218 1.49911271,16.5635437 1.51133003,13.0777859 C1.53569641,9.59202804 4.36328889,6.78873366 7.83689766,6.81310008 C11.3105065,6.83746644 14.1137326,9.66512718 14.0893661,13.150885 C14.0772171,16.6244938 11.2617737,19.4277881 7.80031398,19.4155708 M7.82474862,5.27740365 C4.30233881,5.27740365 2.26696091,7.4103153 1.48689539,8.44633026 L1.48689539,0.743481822 C1.48689539,0.329048551 1.15784684,0 0.743481822,0 C0.329048551,0 8.52651283e-14,0.329048551 8.52651283e-14,0.743481822 L8.52651283e-14,13.3703189 C8.52651283e-14,17.0389271 2.98607635,21 7.82474862,21 C12.504937,21 15.649429,16.9048096 15.649429,13.0900032 C15.649429,8.26348002 11.5908222,5.27740365 7.82474862,5.27740365" id="Fill-1"></path>
        </g>
    </g>
</svg>