<?xml version="1.0" encoding="UTF-8"?>
<svg width="46px" height="18px" viewBox="0 0 46 18" version="1.1" xmlns="http://www.w3.org/2000/svg" xmlns:xlink="http://www.w3.org/1999/xlink">
    <!-- Generator: Sketch 54.1 (76490) - https://sketchapp.com -->
    <title>osn-icon</title>
    <desc>Created with Sketch.</desc>
    <g id="Page-1" stroke="none" stroke-width="1" fill="none" fill-rule="evenodd">
        <g id="osn-icon" fill="#F11916" fill-rule="nonzero">
            <path d="M8.97063791,11.9268382 C10.6640738,11.9598731 11.9311037,10.5569085 11.9343109,9.02351504 C11.9377055,7.39753863 10.6251856,6.07291143 8.99896827,6.0661494 C7.3755581,6.05938745 6.04483691,7.37385832 6.06239673,9.01426745 C6.08054482,10.7067145 7.426179,11.9505988 8.97063791,11.9268382 Z M45.896094,17.92266 L39.242997,17.92266 L39.242997,17.7337788 C39.242997,14.8472401 39.2437457,11.9607016 39.2421952,9.0741631 C39.2419817,8.59066789 39.1954762,8.11369415 38.9858547,7.66764377 C38.7128357,7.08670113 38.2454035,6.79029644 37.6157643,6.72406642 C37.31062,6.69196702 37.0097247,6.70597208 36.7163935,6.79259495 C36.0048355,7.00267083 35.6640095,7.53470264 35.5298923,8.2194003 C35.4721083,8.5142281 35.4497645,8.8203348 35.4491501,9.12139012 C35.443377,11.9900749 35.4457023,14.8588131 35.4457023,17.7275245 C35.4457023,17.7888635 35.4456753,17.8501758 35.4456753,17.9204416 L28.7995,17.9204416 C28.7957315,17.8813664 28.7887827,17.8431465 28.7888097,17.8049533 C28.789745,14.7046238 28.7874467,11.6042677 28.7972018,8.50393817 C28.7985117,8.09164424 28.8613473,7.6795641 28.8955849,7.2673771 C28.8999147,7.21520558 28.90395,7.16303405 28.9080663,7.11115658 C28.4029757,7.05914542 27.7378691,7.43680088 27.4792033,7.91978825 C27.2898409,8.2733625 27.1900145,8.65657718 27.1329791,9.04957413 C27.0454737,9.6524865 26.9916987,10.2609047 26.8871155,10.8606098 C26.5995041,12.5096518 26.0106767,14.0301894 24.901043,15.3138706 C23.8149295,16.5703434 22.45406,17.3553749 20.825919,17.6878614 C19.7343532,17.9107663 18.632016,17.9898788 17.5210192,17.9846671 C17.2542551,17.9834109 16.987464,17.9844533 16.7012157,17.9844533 L16.7012157,13.7217574 C15.2545255,15.9277945 13.2616113,17.3386704 10.68174,17.8275913 C8.10010555,18.3168595 5.711976,17.7623234 3.59579618,16.1941044 C0.24973691,13.7144877 -0.925084637,9.17497817 0.769794545,5.36656475 C2.4705,1.54502828 6.50008145,-0.623430384 10.682649,0.175766614 C13.1445458,0.646192219 15.0945095,1.95280527 16.4895897,4.04453005 C17.88467,6.13620147 18.2432152,8.43826942 17.79786,10.8875775 C18.6656653,10.917512 19.519119,10.3201321 19.8389365,9.46424675 C20.035782,8.93742677 20.103269,8.38671259 20.1357957,7.82947702 C20.195424,6.80737508 20.2801762,5.78872097 20.472772,4.78033012 C20.6434792,3.88635848 21.0712745,3.13422807 21.6648327,2.4597135 C22.7731025,1.20027395 24.1707223,0.481472427 25.8138573,0.208587625 C26.4439783,0.103950606 27.0779203,0.0611068913 27.715365,0.0586212632 C28.321164,0.0562425385 28.9269892,0.0581401722 29.5327882,0.058166894 L29.6926167,0.058166894 L29.6926167,2.27430687 L29.6926167,4.46163488 C29.7014097,4.46452143 29.7101495,4.46743473 29.7189163,4.47034795 C29.7412871,4.43052442 29.765048,4.39144928 29.785815,4.35082385 C30.9420875,2.08716292 32.7808923,0.715816596 35.2611237,0.218556876 C36.9639409,-0.122829758 38.6655292,-0.0777142305 40.3296185,0.449105777 C42.8514905,1.2474742 44.4814233,2.96536557 45.352489,5.43260765 C45.7305995,6.5035669 45.8958805,7.6138686 45.8959607,8.74894647 C45.8961742,11.7557575 45.896067,14.7625685 45.896094,17.7693794 L45.896094,17.92266 Z" id="Page-1"></path>
        </g>
    </g>
</svg>